<svg id="b404b433-c1c2-4ce4-9f69-b238686d5643" data-name="Layer 1" xmlns="http://www.w3.org/2000/svg" viewBox="0 0 2500 900"><title>Artboard 1</title><path d="M997.3588,377.6548l-.8641-.2631c-31.6611-9.6333-52.4134-17.0794-52.4134-32.204v-.8718c0-15.5976,14.8588-26.0784,36.9756-26.0784,17.2742,0,36.488,5.73,55.5652,16.5689l.3082.1638a23.6437,23.6437,0,0,0,10.3633,2.4412,21.2285,21.2285,0,0,0,21.4177-20.9844,22.8839,22.8839,0,0,0-11.4865-19.606l-.258-.1469c-23.4978-12.69-50.8491-19.9671-75.0382-19.9671-49.0449,0-83.2981,29.2354-83.2981,71.096v.8718c0,47.4511,45.8428,60.4683,79.3416,69.9805,29.1167,8.1347,51.3882,15.7524,51.3882,33.2962v.8693c0,17.425-16.0839,29.1321-40.0242,29.1321-22.5951,0-45.3283-7.637-67.5714-22.7022A19.9249,19.9249,0,0,0,909.59,455.369a21.2286,21.2286,0,0,0-21.4178,20.9845,21.8593,21.8593,0,0,0,8.8622,17.5734l.0026.0013c25.9108,18.5071,59.7642,29.5552,90.5561,29.5552,51.9079,0,86.7826-29.7976,86.7826-74.1472v-.8717C1074.3752,400.7607,1028.0127,386.8511,997.3588,377.6548Z" style="fill:#fff"/><path d="M1312.24,449.2692a19.6074,19.6074,0,0,0-14.1276,6.1681c-18.2144,17.2563-37.2554,25.6438-58.2089,25.6438-42.7246,0-76.1924-35.5738-76.1924-80.9871v-.8718c0-45.1671,32.5109-80.5487,74.013-80.5487,25.9017,0,42.69,12.148,56.9734,25.2762l.2451.2128a23.9911,23.9911,0,0,0,15.118,5.4486,22.7522,22.7522,0,0,0,22.728-22.7254,22.3377,22.3377,0,0,0-7.48-16.7314c-25.6825-23.4128-53.3793-34.319-87.1489-34.319-67.3161,0-122.0818,55.7418-122.0818,124.2587v.8717c0,68.0358,54.7657,123.3868,122.0818,123.3868,35.1636,0,63.6484-12.1068,89.6417-38.1a21.8419,21.8419,0,0,0,6.292-15.13C1334.094,459.4816,1323.8816,449.2692,1312.24,449.2692Z" style="fill:#fff"/><path d="M1597.31,396.6069c0-60.0156-38.1917-120.7716-111.1872-120.7716-64.3036,0-114.6742,54.3891-114.6742,123.8228v.8717c0,70.59,51.1715,123.8227,119.0305,123.8227,36.0534,0,63.6433-11.0183,89.4444-35.73a20.9386,20.9386,0,0,0,7.3636-15.7565,21.2286,21.2286,0,0,0-21.42-20.9818c-4.8889,0-9.4063,1.7822-13.81,5.4485l-.25.218c-18.0725,16.6475-37.2824,24.4019-60.4554,24.4019-37.07,0-65.1469-25.0364-71.7548-63.054h155.4218A22.3165,22.3165,0,0,0,1597.31,396.6069Zm-112.0589-79.2412c40.6818,0,59.6893,31.5851,64.4815,63.4873h-130.147C1426.0041,343.1179,1452.2153,317.3657,1485.2512,317.3657Z" style="fill:#fff"/><path d="M1767.2,275.8353c-28.8459,0-52.487,10.2409-70.5285,30.498v-4.2854a23.38,23.38,0,1,0-46.7585,0V497.7068A23.3462,23.3462,0,0,0,1673.51,521.304c13.203,0,23.1614-10.1441,23.1614-23.5972V383.5354c0-37.6783,25.06-63.9927,60.9416-63.9927,35.4047,0,55.7109,22.3706,55.7109,61.3775V497.7068a23.3468,23.3468,0,0,0,23.6,23.5972c12.9889,0,23.1613-10.3645,23.1613-23.5972V372.6409C1860.0851,313.8335,1823.6254,275.8353,1767.2,275.8353Z" style="fill:#fff"/><path d="M2136.8086,396.6069c0-60.0156-38.1929-120.7716-111.1872-120.7716-64.3023,0-114.6743,54.3891-114.6743,123.8228v.8717c0,70.59,51.1716,123.8227,119.0306,123.8227,36.0548,0,63.6446-11.0183,89.4444-35.73a20.9342,20.9342,0,0,0,7.3637-15.7565,21.23,21.23,0,0,0-21.42-20.9818c-4.8876,0-9.4064,1.7822-13.8116,5.4485l-.2477.218c-18.0725,16.6475-37.2824,24.4019-60.4566,24.4019-37.071,0-65.1483-25.0364-71.7562-63.054h155.4232A22.3165,22.3165,0,0,0,2136.8086,396.6069ZM2024.75,317.3657c40.6819,0,59.6907,31.5851,64.48,63.4873H1959.0855C1965.5026,343.1179,1991.7125,317.3657,2024.75,317.3657Z" style="fill:#fff"/><path d="M2307.1345,277.5789c-25.73,0-52.6005,16.4566-70.9645,41.978v-17.509a23.38,23.38,0,1,0-46.7584,0V497.7068a23.3462,23.3462,0,0,0,23.5972,23.5972c12.9889,0,23.1612-10.3645,23.1612-23.5972V421.0114c0-54.77,27.4738-90.7637,73.6881-96.3117,12.2254-1.8337,20.4377-11.2878,20.4377-23.5237C2330.2958,287.5024,2320.5541,277.5789,2307.1345,277.5789Z" style="fill:#fff"/><g style="opacity:0.37"><path d="M688.72,115.2414a61.829,61.829,0,0,1,48.1853,23.36,64.4385,64.4385,0,0,1,12.9439,54.2752c-.0493.2254-.1.448-.1615.6966l-10.8,43.8752-3.3074,13.4365,13.0553,4.5863a64.2724,64.2724,0,0,1,23.9886,15.1269,63.4154,63.4154,0,0,1,18.6969,45.1382,64.12,64.12,0,0,1-1.4019,13.3175c-2.3492,9.9082-39.6262,160.1937-43.2868,172.51a64.1759,64.1759,0,0,1-49.4548,37.22l-.4508.0629-.4465.09a56.8689,56.8689,0,0,1-7.28.6335l-76.7771-.1622-14.0311-.0295-1.1876,13.9806a23.8307,23.8307,0,0,1-3.7871,10.994l-.0477.073-.0469.0737a46.39,46.39,0,0,1-11.9916,12.6173l-7.0991,5.0876.8,8.6971a97.5152,97.5152,0,0,1-.6565,22.3535c-3.16,22.6274-13.3694,45.4489-30.3447,67.8305a17.0371,17.0371,0,0,1-5.6207,4.7551l-4.9759,2.6127-2.0885,5.2175-7.127,17.8033-25.0044,62.653a16.8049,16.8049,0,0,1-15.62,10.6315l-.4431-.0045a16.9685,16.9685,0,0,1-15.5332-11.2022l-32.6465-91.3325-1.5223-4.2588-3.5988-2.7391c-3.4259-2.6074-12.1312-10.1362-18.9621-23.7a91.786,91.786,0,0,1-8.9987-31.1126,125.0366,125.0366,0,0,1,.3225-29.0407l1.0921-8.975-7.3528-5.2611a46.3988,46.3988,0,0,1-12.4459-13.33,23.924,23.924,0,0,1-3.428-10.4441l-1.1858-13.9489-13.9992-.0014L290.366,539.4h-.222l-.187.0053c-.1073.0017-.26.0021-.4167.0021a63.2474,63.2474,0,0,1-38.7711-13.1262,64.4349,64.4349,0,0,1-18.9549-23.4922c-3.9006-12.75-43.886-167.6432-46.3127-179.4342a64.2139,64.2139,0,0,1-.556-8.4165,63.4177,63.4177,0,0,1,18.6979-45.1407,64.3374,64.3374,0,0,1,23.2491-14.8631l12.8363-4.6894-3.2668-13.27c-2.8552-11.5986-10.2279-41.5535-10.7947-43.8789a63.8089,63.8089,0,0,1,60.3134-77.8423c.2558-.0078.5116-.013.7681-.013H688.72m0-15.2414H286.7489c-.4143,0-.8277.0076-1.241.02a79.0513,79.0513,0,0,0-74.693,96.5008c.0676.3064,10.8477,44.0975,10.8477,44.0975a79.4837,79.4837,0,0,0-28.7971,18.4024,78.559,78.559,0,0,0-23.1613,55.9174,79.489,79.489,0,0,0,.7148,10.6171c.0573,2.9525,45.1024,177.8606,47.2221,182.9035a79.7257,79.7257,0,0,0,23.8621,29.9236A78.3653,78.3653,0,0,0,289.54,554.6491c.3377,0,.6623-.0028.8242-.0075l74.3265.0075a39.0635,39.0635,0,0,0,5.6268,17.1294,61.62,61.62,0,0,0,16.5645,17.7489,140.2082,140.2082,0,0,0-.3377,32.5941,106.9616,106.9616,0,0,0,10.5318,36.2576c8.1175,16.1177,18.5674,25.3356,23.343,28.97l32.6465,91.3325a32.2922,32.2922,0,0,0,29.6595,21.312l.6037.006a31.9733,31.9733,0,0,0,29.8415-20.2245l25.0042-62.6519,7.1208-17.7885a32.297,32.297,0,0,0,10.6791-9.0391c18.5689-24.4828,29.7714-49.6943,33.2961-74.933a112.7027,112.7027,0,0,0,.739-25.8575,61.6572,61.6572,0,0,0,15.9629-16.8088,38.95,38.95,0,0,0,6.2188-18.0476l76.7861.1622a69.4668,69.4668,0,0,0,10.3032-.9318A79.4784,79.4784,0,0,0,760.85,507.0963c1.507-2.8448,43.8254-174.0337,43.946-174.7234a79.4008,79.4008,0,0,0,1.7669-16.6363,78.5576,78.5576,0,0,0-23.1613-55.9158,79.4089,79.4089,0,0,0-29.714-18.7291l10.8-43.8752c.0905-.3649.1746-.732.2558-1.1046a79.6154,79.6154,0,0,0-15.9794-67.0849A77.0018,77.0018,0,0,0,688.72,100Z" style="fill:#fff"/></g><path d="M459.0926,579.9935s.95,12.486,3.4463,15.2686l1.53-4.2809s7.4724,24.7134,19.9211,31.5807c0,0,22.2561-18.0245,22.2561-27.6476l1.3367,6.4392s8.8091-4.5752,8.793-21.4046Z" style="fill:#ffe900"/><polygon points="439.237 265.927 428.768 255.454 439.209 245.009 432.222 238.02 421.781 248.464 411.324 238.003 404.337 244.993 414.794 255.454 404.308 265.943 411.296 272.932 421.781 262.443 432.25 272.916 439.237 265.927" style="fill:#ff6a39"/><polygon points="578.952 265.927 568.483 255.454 578.924 245.009 571.937 238.02 561.496 248.464 551.039 238.003 544.052 244.993 554.509 255.454 544.023 265.943 551.01 272.932 561.496 262.443 571.965 272.916 578.952 265.927" style="fill:#7f18ee"/><path d="M688.0215,139.1205H286.05a39.9339,39.9339,0,0,0-37.7353,48.9589L260.0716,235.82s22.65,4.1208,40.0691,18.8212c12.9819,10.9558,19.8439,26.1184,22.5148,33.19l16.8932,68.5875H635.0205l17.0372-69.1718c3.07-7.4162,9.8261-21.1227,21.1842-31.4481C690.8236,239.8159,714,235.82,714,235.82l11.8042-47.955C731.1728,162.97,712.4011,139.1205,688.0215,139.1205Z" style="fill:#fff"/><path d="M766.7446,315.7369a39.9616,39.9616,0,0,0-77.598-13.4293L656.2913,435.6123H319.5367L286.7886,304.97a39.9653,39.9653,0,0,0-77.4563,19.7321L250.4317,486.58a39.9665,39.9665,0,0,0,38.41,28.949c.5361,0,1.0673-.0194,1.5982-.04v.04H690.8236V515.39a39.9725,39.9725,0,0,0,34.54-26.68l40.2376-163.2893A75.8463,75.8463,0,0,0,766.7446,315.7369Z" style="fill:#fff"/><path d="M555.08,581.214a13.0954,13.0954,0,0,0-.5082-1.2651l-38.9053.0146c-.2291,16.2385-8.6748,20.6916-8.6748,20.6916l-1.32-6.4393c0,9.6231-21.9848,27.6475-21.9848,27.6475-12.2968-6.8674-19.6781-31.5808-19.6781-31.5808l-1.5112,4.2812c-2.1179-2.39-3.1084-11.9324-3.3459-14.5787l-38.7715.0144c-13.36,60.8342,19.4153,82.2254,19.4153,82.2254l-1.63-18.7473L482.627,767.8654,507.6318,705.21l19.4153-48.5,2.6254,14.168C565.4966,623.6422,557.578,588.108,555.08,581.214Z" style="fill:#ffb81c"/><polygon points="438.539 265.927 428.069 255.454 438.51 245.009 431.524 238.02 421.082 248.464 410.625 238.003 403.638 244.993 414.095 255.454 403.61 265.943 410.597 272.932 421.082 262.443 431.552 272.916 438.539 265.927" style="fill:#ff6a39"/><polygon points="578.253 265.927 567.784 255.454 578.225 245.009 571.238 238.02 560.797 248.464 550.34 238.003 543.353 244.993 553.81 255.454 543.325 265.943 550.312 272.932 560.797 262.443 571.267 272.916 578.253 265.927" style="fill:#7f18ee"/><path d="M408.5438,548.513A21.9472,21.9472,0,0,0,427.2425,558.98H559.4031a21.9467,21.9467,0,0,0,18.6985-10.4674Z" style="fill:#fff"/></svg>